<svg width="53" height="53" viewBox="0 0 53 53" fill="none" xmlns="http://www.w3.org/2000/svg">
<path d="M28.3932 2.25096C27.2904 1.35392 25.7096 1.35392 24.6068 2.25096L21.174 5.04355C20.9529 5.22338 20.6656 5.30036 20.3843 5.25515L16.015 4.55314C14.6115 4.32764 13.2424 5.11808 12.736 6.44629L11.1593 10.5812C11.0578 10.8475 10.8475 11.0578 10.5812 11.1593L6.44629 12.736C5.11808 13.2424 4.32764 14.6115 4.55314 16.015L5.25515 20.3843C5.30036 20.6656 5.22338 20.9529 5.04356 21.174L2.25096 24.6068C1.35392 25.7096 1.35392 27.2904 2.25096 28.3932L5.04355 31.826C5.22338 32.0471 5.30036 32.3344 5.25515 32.6157L4.55314 36.985C4.32764 38.3885 5.11808 39.7576 6.44629 40.264L10.5812 41.8407C10.8475 41.9422 11.0578 42.1525 11.1593 42.4188L12.736 46.5537C13.2424 47.8819 14.6115 48.6724 16.015 48.4469L20.3843 47.7448C20.6656 47.6996 20.9529 47.7766 21.174 47.9564L24.6068 50.749C25.7096 51.6461 27.2904 51.6461 28.3932 50.749L31.826 47.9564C32.0471 47.7766 32.3344 47.6996 32.6157 47.7448L36.985 48.4469C38.3885 48.6724 39.7576 47.8819 40.264 46.5537L41.8407 42.4188C41.9422 42.1525 42.1525 41.9422 42.4188 41.8407L46.5537 40.264C47.8819 39.7576 48.6724 38.3885 48.4469 36.985L47.7448 32.6157C47.6996 32.3344 47.7766 32.0471 47.9564 31.826L50.749 28.3932C51.6461 27.2904 51.6461 25.7096 50.749 24.6068L47.9564 21.174C47.7766 20.9529 47.6996 20.6656 47.7448 20.3843L48.4469 16.015C48.6724 14.6115 47.8819 13.2424 46.5537 12.736L42.4188 11.1593C42.1525 11.0578 41.9422 10.8475 41.8407 10.5812L40.264 6.44629C39.7576 5.11808 38.3885 4.32764 36.985 4.55314L32.6157 5.25515C32.3344 5.30036 32.0471 5.22338 31.826 5.04356L28.3932 2.25096Z" fill="#6107E1" stroke="white" stroke-width="2"/>
</svg>
